<?xml version="1.0" encoding="UTF-8"?>
<svg width="261px" height="261px" viewBox="0 0 261 261" version="1.1" xmlns="http://www.w3.org/2000/svg" xmlns:xlink="http://www.w3.org/1999/xlink">
    <title>logo</title>
    <defs>
        <path d="M130.5,0 C202.57316,0 261,58.4268402 261,130.5 C261,202.57316 202.57316,261 130.5,261 C58.4268402,261 0,202.57316 0,130.5 C0,58.4268402 58.4268402,0 130.5,0 Z M130.5,10 C63.9496876,10 10,63.9496876 10,130.5 C10,197.050312 63.9496876,251 130.5,251 C197.050312,251 251,197.050312 251,130.5 C251,63.9496876 197.050312,10 130.5,10 Z M74.82777,139.44299 L86.52712,143.94274 C78.60756,166.80147 69.96804,188.40027 60.60856,208.55915 L60.60856,208.55915 L47.64928,202.79947 C58.0887,182.10062 67.26819,161.04179 74.82777,139.44299 L74.82777,139.44299 Z M123.78505,172.20117 C128.46479,178.50082 132.78455,185.88041 136.74433,194.51993 L136.74433,194.51993 L158.70311,194.51993 C163.92282,187.32033 168.42257,179.94074 172.20236,172.38116 L172.20236,172.38116 L183.90171,176.52093 C180.12192,183.18056 175.98215,189.12023 171.4824,194.51993 L171.4824,194.51993 L202.44068,194.51993 L202.44068,206.21928 L94.26669,206.21928 L94.26669,194.51993 L124.32502,194.51993 C120.90521,188.04029 116.76544,182.10062 112.0857,176.52093 L112.0857,176.52093 Z M188.76144,126.30372 L188.76144,168.24139 L106.686,168.24139 L106.686,126.30372 L188.76144,126.30372 Z M176.52212,136.92313 L118.74533,136.92313 L118.74533,157.62198 L176.52212,157.62198 L176.52212,136.92313 Z M53.94893,91.56565 C65.82827,100.38516 75.72772,109.20467 83.64728,118.02418 L83.64728,118.02418 L74.2878,127.20367 C67.0882,118.92413 57.36874,109.92463 44.76944,100.56515 L44.76944,100.56515 Z M142.14403,53.40777 L142.14403,62.58726 C137.82427,76.44649 131.34463,88.50582 122.8851,98.58526 L122.8851,98.58526 L175.26219,98.58526 L175.26219,110.10462 L122.52512,110.10462 L122.52512,98.94524 C114.96554,107.76475 105.60606,115.32433 94.80666,121.62398 L94.80666,121.62398 L87.42707,111.90452 C96.96654,106.68481 105.06609,100.56515 111.90571,93.54554 C106.86599,89.22578 101.10631,84.72603 94.26669,80.22628 L94.26669,80.22628 L102.00626,72.6667 C108.4859,76.98646 114.06559,81.30622 118.74533,85.62598 C123.60506,79.14634 127.56484,72.12673 130.62467,64.56715 L130.62467,64.56715 L99.4864,64.56715 L99.4864,53.40777 L142.14403,53.40777 Z M183.00176,47.82808 L191.46129,55.20767 C185.34163,62.04729 178.14203,67.80697 170.04248,72.84669 C172.56234,77.16645 175.44218,81.30622 178.682,85.266 C186.96154,80.04629 193.98115,74.28661 199.74083,67.80697 L199.74083,67.80697 L208.20036,75.18656 C201.90071,82.02618 194.34113,87.96585 185.70161,93.18556 C192.00126,99.6652 199.02087,105.42488 206.94043,110.4646 L206.94043,110.4646 L199.02087,119.64409 C175.26219,102.72503 158.70311,80.76625 149.34363,53.94774 L149.34363,53.94774 L158.52312,48.72803 C160.32302,54.12773 162.4829,59.16745 165.00276,64.02718 C172.02237,59.16745 177.96204,53.76775 183.00176,47.82808 L183.00176,47.82808 Z M58.44868,48.36805 C69.96804,56.28761 79.50751,64.20717 87.42707,72.12673 L87.42707,72.12673 L78.24758,81.30622 C71.22797,73.74664 61.50851,65.64709 49.0892,57.36755 L49.0892,57.36755 Z" id="path-1"></path>
    </defs>
    <g id="logo" stroke="none" stroke-width="1" fill="none" fill-rule="evenodd">
        <g id="Combined-Shape" fill-rule="nonzero">
            <use fill="#000000" xlink:href="#path-1"></use>
            <use fill="#F76C2C" xlink:href="#path-1"></use>
        </g>
    </g>
</svg>