<svg id="Layer_1" data-name="Layer 1" xmlns="http://www.w3.org/2000/svg" xmlns:xlink="http://www.w3.org/1999/xlink" viewBox="0 0 1258.81 316.77">
  <defs>
    <style>
      .cls-1, .cls-2, .cls-28, .cls-3, .cls-4, .cls-8 {
        fill: none;
      }

      .cls-1, .cls-2, .cls-26, .cls-28, .cls-29, .cls-7, .cls-8 {
        stroke: #a9cc68;
        stroke-miterlimit: 10;
      }

      .cls-1, .cls-4 {
        clip-rule: evenodd;
      }

      .cls-5 {
        clip-path: url(#clip-path);
      }

      .cls-6 {
        clip-path: url(#clip-path-2);
      }

      .cls-11, .cls-7 {
        fill: #a2cb78;
      }

      .cls-8 {
        fill-rule: evenodd;
      }

      .cls-9 {
        clip-path: url(#clip-path-3);
      }

      .cls-10 {
        clip-path: url(#clip-path-4);
      }

      .cls-12 {
        clip-path: url(#clip-path-5);
      }

      .cls-13 {
        clip-path: url(#clip-path-7);
      }

      .cls-14 {
        clip-path: url(#clip-path-8);
      }

      .cls-15 {
        clip-path: url(#clip-path-9);
      }

      .cls-16 {
        clip-path: url(#clip-path-10);
      }

      .cls-17 {
        clip-path: url(#clip-path-11);
      }

      .cls-18 {
        clip-path: url(#clip-path-12);
      }

      .cls-19 {
        clip-path: url(#clip-path-13);
      }

      .cls-20 {
        clip-path: url(#clip-path-15);
      }

      .cls-21 {
        clip-path: url(#clip-path-17);
      }

      .cls-22 {
        clip-path: url(#clip-path-19);
      }

      .cls-23 {
        clip-path: url(#clip-path-20);
      }

      .cls-24 {
        clip-path: url(#clip-path-21);
      }

      .cls-25 {
        clip-path: url(#clip-path-23);
      }

      .cls-26, .cls-27 {
        fill: #a9cc68;
      }

      .cls-28, .cls-29 {
        stroke-width: 15px;
      }

      .cls-29, .cls-31 {
        fill: #fff;
      }

      .cls-30 {
        opacity: 0.4;
      }

      .cls-31 {
        font-size: 24px;
        font-family: Helvetica-Bold, Helvetica;
        font-weight: 700;
      }
    </style>
    <clipPath id="clip-path">
      <path class="cls-1" d="M1183.18,186.58a5,5,0,0,1-2.79.86h-20.51a5,5,0,0,1-2.8-.86l0,0a3.13,3.13,0,0,0-3.18-.2,3.22,3.22,0,0,0-1.77,2.69,3.28,3.28,0,0,0,1.41,2.9l1.33.89a6.25,6.25,0,0,0,3.53,1.08h23.57a6.38,6.38,0,0,0,3.53-1.08l1.32-.89a3.25,3.25,0,0,0,.92-4.43A3.21,3.21,0,0,0,1183.18,186.58Z"/>
    </clipPath>
    <clipPath id="clip-path-2">
      <rect class="cls-2" x="-21.67" y="-40.01" width="1293.51" height="396.18"/>
    </clipPath>
    <clipPath id="clip-path-3">
      <path class="cls-4" d="M1152.07,163.74a6,6,0,1,0-6.26-6A6.16,6.16,0,0,0,1152.07,163.74Z"/>
    </clipPath>
    <clipPath id="clip-path-4">
      <rect class="cls-3" x="-21.67" y="-40.01" width="1293.51" height="396.18"/>
    </clipPath>
    <clipPath id="clip-path-5">
      <path class="cls-4" d="M1185.2,163.74a6,6,0,1,0-6.27-6A6.16,6.16,0,0,0,1185.2,163.74Z"/>
    </clipPath>
    <clipPath id="clip-path-7">
      <path class="cls-4" d="M389,95.31a1.88,1.88,0,0,1,1.87,1.88V103a1.88,1.88,0,1,1-3.75,0V97.19A1.88,1.88,0,0,1,389,95.31Zm-17.74,7.19a1.89,1.89,0,0,1,1.82.5l4.12,4.13a1.87,1.87,0,1,1-2.65,2.65l-4.13-4.12a1.87,1.87,0,0,1-.49-1.82A1.89,1.89,0,0,1,371.23,102.5Zm33.65.5a1.88,1.88,0,0,1,2.66,2.66l-4.13,4.12a1.88,1.88,0,0,1-3.06-.61,1.87,1.87,0,0,1,.41-2Zm-34.47,16.7a1.88,1.88,0,1,1,0,3.75h-5.83a1.88,1.88,0,1,1,0-3.75Zm42.94,0a1.88,1.88,0,1,1,0,3.75h-5.83a1.88,1.88,0,1,1,0-3.75ZM389,110.94a10.64,10.64,0,1,0,10.63,10.63A10.65,10.65,0,0,0,389,110.94Zm-8-1.32a14.38,14.38,0,1,1-5.29,17.46A14.39,14.39,0,0,1,381,109.62Zm19.79,23.75a1.86,1.86,0,0,1,2.65,0l4.13,4.12a1.88,1.88,0,0,1-2.66,2.66L400.76,136A1.86,1.86,0,0,1,400.76,133.37Zm-26.24,0a1.87,1.87,0,1,1,2.65,2.65l-4.12,4.13a1.88,1.88,0,1,1-2.66-2.66ZM389,138.25a1.88,1.88,0,0,1,1.87,1.88V146a1.88,1.88,0,1,1-3.75,0v-5.83A1.88,1.88,0,0,1,389,138.25Z"/>
    </clipPath>
    <clipPath id="clip-path-8">
      <rect class="cls-3" x="-72.75" y="-164.58" width="1584.19" height="485.21"/>
    </clipPath>
    <clipPath id="clip-path-9">
      <path class="cls-3" d="M543,207.82a34.84,34.84,0,0,1-2.37,8.47A18,18,0,0,1,527.4,227.4a34.16,34.16,0,0,1-8.74.88c-1.63,0-3.17-.14-4.52-.3q2.24-1.39,4.38-2.95A70.07,70.07,0,0,0,534,209.53a1.37,1.37,0,1,0-2.22-1.6,67,67,0,0,1-21.85,19.38l-.17,0a48.93,48.93,0,0,1,.55-9,34.34,34.34,0,0,1,2.37-8.44,19.4,19.4,0,0,1,5.2-7.22,19.66,19.66,0,0,1,8-3.87,34.62,34.62,0,0,1,8.74-.88,48.88,48.88,0,0,1,8.95,1A49.21,49.21,0,0,1,543,207.82Zm3.21-10.13-.08-1-.94-.25a49.47,49.47,0,0,0-10.49-1.31,37.59,37.59,0,0,0-9.47,1,20.8,20.8,0,0,0-15.11,12.68,37.35,37.35,0,0,0-2.57,9.15,49.73,49.73,0,0,0-.51,10.54l0,.31a67.15,67.15,0,0,1-7.69,3.22,1.37,1.37,0,1,0,.91,2.58,71.1,71.1,0,0,0,10-4.41,51.45,51.45,0,0,0,8.22.82h.85a36.29,36.29,0,0,0,8.62-1,20.74,20.74,0,0,0,15.11-12.68,36.79,36.79,0,0,0,2.57-9.15A49,49,0,0,0,546.21,197.69Z"/>
    </clipPath>
    <clipPath id="clip-path-10">
      <rect class="cls-3" x="31.59" y="-61.67" width="1191.62" height="364.97"/>
    </clipPath>
    <clipPath id="clip-path-11">
      <path class="cls-3" d="M966.05,171.44H937a6.68,6.68,0,0,1-6-3.78,6.77,6.77,0,0,1,.77-7.09,6.66,6.66,0,0,1,6.68-2.38l1.55.35.41-1.54a11.53,11.53,0,0,1,4-6,11.17,11.17,0,0,1,6.93-2.38,11.37,11.37,0,0,1,11,8.45l.43,1.61,1.6-.42a6.61,6.61,0,0,1,6.79,2.2,6.73,6.73,0,0,1,.91,7.13,6.63,6.63,0,0,1-6,3.86Zm0-16.77c-.32,0-.65,0-1,.05a14.7,14.7,0,0,0-13.7-9.47,14.45,14.45,0,0,0-9,3.08,14.88,14.88,0,0,0-4.72,6.37l-.66,0a10.06,10.06,0,0,0,0,20.12h29a10.06,10.06,0,0,0,0-20.12Z"/>
    </clipPath>
    <clipPath id="clip-path-12">
      <rect class="cls-3" x="-4.73" y="-79.63" width="1275.78" height="390.75"/>
    </clipPath>
    <clipPath id="clip-path-13">
      <path class="cls-3" d="M936.9,183.32a5.87,5.87,0,0,1-.72,1.35,5.5,5.5,0,0,1-.72-1.35,7.45,7.45,0,0,1-.54-2.23,1.26,1.26,0,0,1,2.51,0A7.37,7.37,0,0,1,936.9,183.32Zm-.72-6.78a4.58,4.58,0,0,0-4.59,4.55,11,11,0,0,0,1,4c1.17,2.57,2.6,3.11,3.59,3.11s2.42-.54,3.59-3.11a11,11,0,0,0,1-4A4.58,4.58,0,0,0,936.18,176.54Z"/>
    </clipPath>
    <clipPath id="clip-path-15">
      <path class="cls-3" d="M952.23,190.44a5.72,5.72,0,0,1-.71,1.35,5.31,5.31,0,0,1-.72-1.35,7.45,7.45,0,0,1-.54-2.23,1.26,1.26,0,0,1,2.51,0A7.45,7.45,0,0,1,952.23,190.44Zm-.72-6.78a4.58,4.58,0,0,0-4.59,4.55,10.79,10.79,0,0,0,1,4c1.17,2.57,2.59,3.11,3.58,3.11s2.42-.54,3.59-3.11a11,11,0,0,0,1-4A4.58,4.58,0,0,0,951.51,183.66Z"/>
    </clipPath>
    <clipPath id="clip-path-17">
      <path class="cls-3" d="M967.56,183.32a5.56,5.56,0,0,1-.71,1.35,5.5,5.5,0,0,1-.72-1.35,7.45,7.45,0,0,1-.54-2.23,1.26,1.26,0,0,1,2.51,0A7.15,7.15,0,0,1,967.56,183.32Zm-.71-6.78a4.58,4.58,0,0,0-4.6,4.55,11,11,0,0,0,1,4c1.17,2.57,2.6,3.11,3.59,3.11s2.42-.54,3.58-3.11a10.79,10.79,0,0,0,1-4A4.58,4.58,0,0,0,966.85,176.54Z"/>
    </clipPath>
    <clipPath id="clip-path-19">
      <path class="cls-3" d="M695.36,141.83h17.21a5.34,5.34,0,0,0,3.78-1.6,5.46,5.46,0,0,0,0-7.65,5.27,5.27,0,0,0-7.54,0,1.55,1.55,0,0,0,0,2.16,1.49,1.49,0,0,0,2.13,0,2.29,2.29,0,0,1,2.8-.38,2.36,2.36,0,0,1,1.08,2.64,2.32,2.32,0,0,1-2.24,1.74H695.36a1.54,1.54,0,0,0,0,3.07Z"/>
    </clipPath>
    <clipPath id="clip-path-20">
      <rect class="cls-3" x="-54.14" y="-137.17" width="1378.13" height="422.1"/>
    </clipPath>
    <clipPath id="clip-path-21">
      <path class="cls-3" d="M732.92,138.78a6.29,6.29,0,0,0-4.41-1.76h0a6.28,6.28,0,0,0-4.4,1.75,1.41,1.41,0,0,0-.39,1.4,1.44,1.44,0,0,0,1.06,1,1.5,1.5,0,0,0,1.44-.38,3.32,3.32,0,0,1,2.29-.91h0a3.13,3.13,0,1,1,0,6.26H695.35a1.44,1.44,0,1,0,0,2.88h33.17a6.23,6.23,0,0,0,5.74-3.71,5.85,5.85,0,0,0-1.34-6.55Z"/>
    </clipPath>
    <clipPath id="clip-path-23">
      <path class="cls-3" d="M718.54,153.85H695.37a1.53,1.53,0,0,0,0,3.06h23.17a2.36,2.36,0,0,1,1.64,4,2.3,2.3,0,0,1-1.64.68h0a2.33,2.33,0,0,1-1.65-.69,1.51,1.51,0,0,0-1.47-.41,1.53,1.53,0,0,0-.69,2.57,5.37,5.37,0,0,0,3.8,1.6h0a5.36,5.36,0,0,0,3.79-1.58,5.42,5.42,0,0,0-3.79-9.25Z"/>
    </clipPath>
  </defs>
  <g>
    <g class="cls-5">
      <g>
        <g class="cls-6">
          <rect class="cls-7" x="1150.88" y="184.45" width="38.88" height="10.59"/>
        </g>
        <rect class="cls-2" x="-21.67" y="-40.01" width="1293.51" height="396.18"/>
      </g>
    </g>
    <path class="cls-8" d="M1183.18,186.58a5,5,0,0,1-2.79.86h-20.51a5,5,0,0,1-2.8-.86l0,0a3.13,3.13,0,0,0-3.18-.2,3.22,3.22,0,0,0-1.77,2.69,3.28,3.28,0,0,0,1.41,2.9l1.33.89a6.25,6.25,0,0,0,3.53,1.08h23.57a6.38,6.38,0,0,0,3.53-1.08l1.32-.89a3.25,3.25,0,0,0,.92-4.43A3.21,3.21,0,0,0,1183.18,186.58Z"/>
  </g>
  <g class="cls-9">
    <g class="cls-10">
      <rect class="cls-11" x="1144.68" y="150.55" width="14.79" height="14.32"/>
    </g>
  </g>
  <g class="cls-12">
    <g class="cls-10">
      <rect class="cls-11" x="1177.8" y="150.55" width="14.79" height="14.32"/>
    </g>
  </g>
  <g class="cls-13">
    <g class="cls-14">
      <rect class="cls-11" x="361.32" y="93.93" width="55.29" height="55.29"/>
    </g>
  </g>
  <g class="cls-15">
    <g class="cls-16">
      <rect class="cls-11" x="497.25" y="194.07" width="50.38" height="41.65"/>
    </g>
  </g>
  <g class="cls-17">
    <g class="cls-18">
      <rect class="cls-11" x="925.94" y="144.12" width="51.21" height="31.78"/>
    </g>
  </g>
  <g class="cls-19">
    <g class="cls-18">
      <rect class="cls-11" x="930.47" y="175.43" width="11.41" height="13.91"/>
    </g>
  </g>
  <g class="cls-20">
    <g class="cls-18">
      <rect class="cls-11" x="945.81" y="182.55" width="11.41" height="13.91"/>
    </g>
  </g>
  <g class="cls-21">
    <g class="cls-18">
      <rect class="cls-11" x="961.14" y="175.43" width="11.41" height="13.91"/>
    </g>
  </g>
  <g class="cls-22">
    <g class="cls-23">
      <rect class="cls-11" x="692.65" y="129.27" width="26.98" height="13.76"/>
    </g>
  </g>
  <g class="cls-24">
    <g class="cls-23">
      <rect class="cls-11" x="692.65" y="135.81" width="43.78" height="14.44"/>
    </g>
  </g>
  <g class="cls-25">
    <g class="cls-23">
      <rect class="cls-11" x="692.65" y="152.65" width="33" height="13.23"/>
    </g>
  </g>
  <rect class="cls-26" x="18.57" y="171.79" width="277.76" height="82.6" rx="12"/>
  <path class="cls-27" d="M296.39,219.92c25.56-1.82,48.75-14,70.33-27,22.43-13.46,44.2-29.15,68.76-38.58,11.3-4.34,23.19-7.24,35.36-6.92,15,.39,29.61,4.88,43.45,10.27,29.08,11.33,56.12,28.33,86.59,36,33.31,8.37,68.18,4.9,101-4,30.76-8.31,61-20.06,88.09-36.94,24.17-15.06,47.62-33.44,75.26-41.74a84.91,84.91,0,0,1,42-2.06c15.46,3.24,29.86,10,43.68,17.44,23.93,13,46.79,28,72.43,37.55,23.52,8.75,52.9,12.91,72-7.19,5.37-5.66,9.41-12.41,13.21-19.18,3.15-5.61-5.48-10.66-8.64-5-6.82,12.15-14.7,23.72-28.9,27.43-12.08,3.16-25,.73-36.73-2.85-25.45-7.79-48.17-22.42-71.17-35.4C937,107,908.42,93.81,877.64,98.09c-28,3.9-52.46,20-75.67,35.09-11.9,7.75-23.8,15.58-36.42,22.13-14.21,7.39-29.5,13-44.64,18.11-32.17,10.93-66.41,18.16-100.47,13.84-31.5-4-59.23-19.89-87.78-32.6-25.82-11.51-53.59-21.19-82.11-15.27-50.85,10.56-87.4,53.86-137,67.51a88.33,88.33,0,0,1-17.14,3c-6.38.45-6.43,10.46,0,10Z"/>
  <rect class="cls-28" x="1103.2" y="68.8" width="130.87" height="202.99" rx="12"/>
  <rect class="cls-29" x="1131.53" y="41.14" width="74.2" height="27.66" rx="12"/>
  <g class="cls-30">
    <path class="cls-27" d="M1109.74,218.44a25.81,25.81,0,0,0,25-2.21c5.8-4,10.11-10.54,16.9-12.41,6.28-1.74,13,1.13,17.91,5.46,4.39,3.92,8.56,9.41,14.44,9.28,5.07-.11,9-4.63,10.85-9.36s2.15-9.92,3.83-14.71a28.12,28.12,0,0,1,16.23-16.72,12.08,12.08,0,0,1,6.31-.94c6.91,1.21,8.61,10.22,8.73,17.24q.54,33.63,1.09,67.27c0,1.71,0,3.57-1,4.93s-2.72,1.84-4.32,2.27a210.46,210.46,0,0,1-108.82-.13c-4.31-1.16-8.74-2.56-12-5.59-6.83-6.31-6.31-17.07-5.26-26.32l1.74-15.41c.46-4,3.15-9.48,6.85-7.8,2.65,1.2,3.74,5.77,6.56,5.08"/>
    <path class="cls-27" d="M1108.48,220.6a28.62,28.62,0,0,0,20.08,1.34,28,28,0,0,0,8.89-4.62c2.57-2,4.84-4.3,7.26-6.45a20.16,20.16,0,0,1,7.23-4.54,14.11,14.11,0,0,1,9.26.63c6.15,2.36,9.74,8,15,11.59a13.06,13.06,0,0,0,8.81,2.42,13.41,13.41,0,0,0,8.47-4.78c5-5.9,5.06-13.56,7.4-20.6a25.55,25.55,0,0,1,11.18-13.7c2.58-1.53,6.1-3.31,9.17-2.48a5.14,5.14,0,0,1,2.38,1.36,8.8,8.8,0,0,1,1.81,2.66c2.54,5.18,2,11.88,2.08,17.61l.41,25.17.4,25.16.11,6.23a38.73,38.73,0,0,1,0,5.8c-.21,1.43-1,2-2.35,2.41-1.77.57-3.61,1-5.43,1.43a208.17,208.17,0,0,1-93.39,1.15c-3.74-.82-7.47-1.72-11.15-2.77-3.13-.89-6.39-1.95-8.94-4-4.65-3.78-5.73-9.94-5.76-15.62,0-7.18,1.18-14.39,2-21.51.32-2.76.4-5.81,2.25-8.15a4.09,4.09,0,0,1,.72-.68c.35-.23,0,.08.34-.15,0,0-.39,0,0,0s-.28-.07.12,0a1.46,1.46,0,0,1,.79.43,13.07,13.07,0,0,1,1.09,1.23c1.78,2.25,3.53,4.26,6.69,3.65a2.52,2.52,0,0,0,1.75-3.07,2.56,2.56,0,0,0-3.08-1.75c.37-.07-.3-.08.16,0,.28,0,0,0,0,0a8.33,8.33,0,0,1-1.16-1.28,15.4,15.4,0,0,0-2.84-3,5.94,5.94,0,0,0-8,1.08c-2.2,2.45-3.09,5.68-3.46,8.88q-.72,6.25-1.42,12.51c-.76,6.68-1.55,13.53,0,20.17a19.6,19.6,0,0,0,13,14.7,81.2,81.2,0,0,0,11.05,3.2c3.94,1,7.92,1.8,11.91,2.52a216.34,216.34,0,0,0,24.59,3,214,214,0,0,0,49.21-2.56q6.12-1,12.17-2.42c2-.46,4-.94,5.91-1.46a15.58,15.58,0,0,0,5.1-1.92c3.69-2.58,3.23-7,3.17-11l-.21-13c-.28-17.31-.34-34.63-.85-51.94-.16-5.5-1.06-12-5.13-16.12-5.37-5.4-13.44-2.65-19,1A30.89,30.89,0,0,0,1196,194.48c-2.14,6.58-1.88,15.11-7.71,19.84a7.12,7.12,0,0,1-7.42,1.14c-2.81-1.2-5-3.58-7.18-5.67-5.1-4.95-11.36-9.25-18.79-9-7.25.27-12.32,5.21-17.35,9.84a29.81,29.81,0,0,1-7.85,5.55,23.26,23.26,0,0,1-9.55,2,22.47,22.47,0,0,1-9.18-1.9,2.58,2.58,0,0,0-3.42.9,2.52,2.52,0,0,0,.9,3.42Z"/>
  </g>
  <text class="cls-31" transform="translate(73.29 225.47)">CHARGE NOW</text>
</svg>
