<?xml version="1.0" encoding="UTF-8"?>
<svg width="176px" height="176px" viewBox="0 0 176 176" version="1.1" xmlns="http://www.w3.org/2000/svg" xmlns:xlink="http://www.w3.org/1999/xlink">
    <title>Group</title>
    <g id="hi-fi-final" stroke="none" stroke-width="1" fill="none" fill-rule="evenodd">
        <g id="Group">
            <circle id="Oval" fill="#BA1731" cx="88" cy="88" r="88"></circle>
            <g transform="translate(38.000000, 39.000000)" fill="#FFFFFF" id="1)-icon/correct">
                <path d="M50.6601562,90.4921875 C53.0095238,90.4921875 54.9140625,92.3967262 54.9140625,94.7460938 C54.9140625,97.0954613 53.0095238,99 50.6601562,99 C48.3107887,99 46.40625,97.0954613 46.40625,94.7460938 C46.40625,92.3967262 48.3107887,90.4921875 50.6601562,90.4921875 Z M50.2734375,0 C52.1956473,0 53.7539062,1.55825894 53.7539062,3.48046875 L53.7539062,3.48046875 L53.7539062,77.7304688 C53.7539062,79.6526786 52.1956473,81.2109375 50.2734375,81.2109375 C48.3512277,81.2109375 46.7929688,79.6526786 46.7929688,77.7304688 L46.7929688,77.7304688 L46.7929688,3.48046875 C46.7929688,1.55825894 48.3512277,0 50.2734375,0 Z" id="Combined-Shape"></path>
            </g>
        </g>
    </g>
</svg>